<svg width="17" height="16" viewBox="0 0 17 16" fill="none" xmlns="http://www.w3.org/2000/svg">
<path fill-rule="evenodd" clip-rule="evenodd" d="M2.59495 2.00543C2.52984 2.00052 2.43949 2.00008 2.27005 2.00008H1.16722C0.799026 2.00008 0.500549 1.70161 0.500549 1.33342C0.500549 0.965228 0.799026 0.666751 1.16722 0.666751H2.27005C2.27633 0.666751 2.28262 0.66675 2.2889 0.66675C2.43201 0.666732 2.5737 0.666715 2.69513 0.675864C2.83026 0.686045 2.98725 0.709959 3.14966 0.782405C3.37822 0.884362 3.57348 1.04859 3.71309 1.25631C3.81229 1.4039 3.86275 1.55447 3.89593 1.68586C3.92575 1.80392 3.95001 1.94352 3.97452 2.08452C3.97559 2.09071 3.97667 2.0969 3.97775 2.10309L4.1366 3.01647L12.8126 3.27329C13.1526 3.28335 13.4464 3.29203 13.6884 3.31868C13.9441 3.34685 14.1977 3.39981 14.4409 3.5294C14.8095 3.72576 15.1074 4.03257 15.2927 4.4068C15.4151 4.65377 15.4605 4.90879 15.4811 5.16527C15.5006 5.40792 15.5006 5.70186 15.5005 6.04199V6.09115C15.5006 6.4108 15.5006 6.68808 15.4827 6.91801C15.4637 7.16184 15.4218 7.40404 15.3101 7.64135C15.1401 8.00255 14.8658 8.30461 14.5227 8.50864C14.2972 8.64268 14.0602 8.70769 13.8193 8.75008C13.5922 8.79005 13.3162 8.81675 12.9981 8.84752L6.50881 9.47552C6.18268 9.50709 5.90011 9.53445 5.66436 9.53859C5.41458 9.54299 5.16415 9.52359 4.91274 9.43123C4.53569 9.29272 4.20909 9.04388 3.97546 8.71713C3.81968 8.49925 3.7345 8.26295 3.67243 8.02097C3.61385 7.79258 3.56522 7.51289 3.50909 7.19009L2.66413 2.33155C2.6351 2.16461 2.61918 2.07567 2.6032 2.01236C2.60263 2.01011 2.60208 2.00798 2.60155 2.00595C2.59946 2.00578 2.59727 2.0056 2.59495 2.00543ZM4.36978 4.35729L4.81851 6.93748C4.88004 7.29131 4.92005 7.5185 4.96396 7.68971C5.00584 7.853 5.03897 7.91212 5.06008 7.94164C5.13795 8.05056 5.24682 8.1335 5.3725 8.17967C5.40657 8.19218 5.47236 8.20843 5.64091 8.20547C5.81763 8.20236 6.04729 8.18062 6.40476 8.14602L12.8457 7.52271C13.1946 7.48894 13.4184 7.46681 13.5883 7.43692C13.7501 7.40845 13.8105 7.3809 13.8413 7.36258C13.9556 7.29457 14.0471 7.19389 14.1037 7.07348C14.119 7.04106 14.1406 6.97829 14.1534 6.81449C14.1667 6.64254 14.1672 6.41767 14.1672 6.06709C14.1672 5.69475 14.1667 5.45484 14.152 5.27196C14.138 5.09696 14.1142 5.03135 14.0979 4.99862C14.0362 4.87388 13.9369 4.77161 13.814 4.70616C13.7818 4.68898 13.7169 4.66322 13.5424 4.644C13.36 4.62392 13.1202 4.61632 12.7481 4.6053L4.36978 4.35729Z" fill="white"/>
<path fill-rule="evenodd" clip-rule="evenodd" d="M6.16722 11.6667C5.79903 11.6667 5.50055 11.9652 5.50055 12.3334C5.50055 12.7016 5.79903 13.0001 6.16722 13.0001C6.53541 13.0001 6.83388 12.7016 6.83388 12.3334C6.83388 11.9652 6.53541 11.6667 6.16722 11.6667ZM4.16722 12.3334C4.16722 11.2288 5.06265 10.3334 6.16722 10.3334C7.27179 10.3334 8.16722 11.2288 8.16722 12.3334C8.16722 13.438 7.27179 14.3334 6.16722 14.3334C5.06265 14.3334 4.16722 13.438 4.16722 12.3334Z" fill="white"/>
<path fill-rule="evenodd" clip-rule="evenodd" d="M12.5005 11.6667C12.1324 11.6667 11.8339 11.9652 11.8339 12.3334C11.8339 12.7016 12.1324 13.0001 12.5005 13.0001C12.8687 13.0001 13.1672 12.7016 13.1672 12.3334C13.1672 11.9652 12.8687 11.6667 12.5005 11.6667ZM10.5005 12.3334C10.5005 11.2288 11.396 10.3334 12.5005 10.3334C13.6051 10.3334 14.5005 11.2288 14.5005 12.3334C14.5005 13.438 13.6051 14.3334 12.5005 14.3334C11.396 14.3334 10.5005 13.438 10.5005 12.3334Z" fill="white"/>
</svg>
