<svg width="10" height="20" viewBox="0 0 10 20" fill="none" xmlns="http://www.w3.org/2000/svg">
<path d="M9.63574 0.837067L7.32135 0.833252C4.72122 0.833252 3.0409 2.60416 3.0409 5.34511V7.42538H0.71389C0.512809 7.42538 0.349976 7.59284 0.349976 7.79939V10.8135C0.349976 11.02 0.512995 11.1873 0.71389 11.1873H3.0409V18.7928C3.0409 18.9993 3.20373 19.1666 3.40482 19.1666H6.4409C6.64199 19.1666 6.80482 18.9991 6.80482 18.7928V11.1873H9.52564C9.72672 11.1873 9.88955 11.02 9.88955 10.8135L9.89067 7.79939C9.89067 7.70022 9.85223 7.60523 9.78409 7.53505C9.71595 7.46486 9.62311 7.42538 9.52657 7.42538H6.80482V5.66191C6.80482 4.81431 7.00144 4.38403 8.07629 4.38403L9.63537 4.38346C9.83626 4.38346 9.9991 4.216 9.9991 4.00963V1.21089C9.9991 1.00472 9.83645 0.837448 9.63574 0.837067Z" fill="#787A80"/>
</svg>
