<svg width="32" height="30" viewBox="0 0 32 30" fill="none" xmlns="http://www.w3.org/2000/svg">
<path d="M29.1021 23.2525C29.1294 23.5709 28.8809 23.8445 28.5646 23.8445H2.5492C2.23369 23.8445 1.98549 23.5722 2.01152 23.2544L3.87586 0.50016C3.89906 0.217508 4.13283 0 4.41367 0H26.6225C26.9026 0 27.1361 0.216418 27.1601 0.498252L29.1021 23.2525Z" fill="#17696A"/>
<path d="M31.1789 29.189C31.2114 29.5862 30.9011 29.9266 30.5069 29.9266H0.67446C0.280981 29.9266 -0.0290002 29.5878 0.00215983 29.1914L2.14384 1.93482C2.17176 1.58035 2.46434 1.30737 2.81614 1.30737H28.2759C28.6269 1.30737 28.9192 1.57926 28.948 1.93264L31.1789 29.189Z" fill="url(#paint0_linear_741_988)"/>
<path d="M17.2711 9.43068C21.1541 9.43068 24.313 13.2628 24.313 17.9732C24.313 18.2185 24.1162 18.4175 23.8732 18.4175C23.6303 18.4175 23.4335 18.2186 23.4335 17.9732C23.4335 13.7528 20.669 10.3193 17.271 10.3193C13.8729 10.3193 11.1084 13.7528 11.1084 17.9732C11.1084 18.2185 10.9116 18.4175 10.6687 18.4175C10.4257 18.4175 10.2289 18.2186 10.2289 17.9732C10.2291 13.2628 13.3881 9.43068 17.2711 9.43068Z" fill="white"/>
<path d="M12.9364 18.0923C13.0489 18.0923 13.1614 18.1356 13.2473 18.2224C13.419 18.3959 13.419 18.6772 13.2473 18.8507L10.9684 21.1531C10.886 21.2363 10.7742 21.2832 10.6575 21.2832C10.5408 21.2832 10.429 21.2365 10.3466 21.1531L8.08999 18.873C7.91828 18.6995 7.91828 18.4183 8.08999 18.2448C8.26171 18.0714 8.54013 18.0713 8.71185 18.2448L10.6577 20.2105L12.6255 18.2224C12.7114 18.1356 12.8239 18.0923 12.9364 18.0923Z" fill="white"/>
<defs>
<linearGradient id="paint0_linear_741_988" x1="24.9534" y1="25.9213" x2="6.59333" y2="4.48844" gradientUnits="userSpaceOnUse">
<stop stop-color="#17696A"/>
<stop offset="1" stop-color="#17696A"/>
</linearGradient>
</defs>
</svg>
